<svg xmlns="http://www.w3.org/2000/svg" viewBox="0 0 100 100" width="100" height="100">
  <!-- Background -->
  <rect width="100" height="100" rx="10" fill="#0a0e17" />
  
  <!-- Outer ring with glow effect -->
  <circle cx="50" cy="50" r="40" fill="none" stroke="#00f3ff" stroke-width="2" stroke-opacity="0.7">
    <animate attributeName="stroke-opacity" values="0.7;0.9;0.7" dur="3s" repeatCount="indefinite" />
  </circle>
  
  <!-- Inner tech pattern -->
  <path d="M50 20 L70 40 L50 60 L30 40 Z" fill="none" stroke="#00f3ff" stroke-width="2" stroke-opacity="0.9" />
  
  <!-- Center element -->
  <circle cx="50" cy="50" r="10" fill="#00f3ff" fill-opacity="0.8">
    <animate attributeName="r" values="10;12;10" dur="2s" repeatCount="indefinite" />
  </circle>
  
  <!-- Tech lines -->
  <line x1="20" y1="50" x2="35" y2="50" stroke="#00f3ff" stroke-width="2" />
  <line x1="65" y1="50" x2="80" y2="50" stroke="#00f3ff" stroke-width="2" />
  <line x1="50" y1="20" x2="50" y2="35" stroke="#00f3ff" stroke-width="2" />
  <line x1="50" y1="65" x2="50" y2="80" stroke="#00f3ff" stroke-width="2" />
  
  <!-- NH initials -->
  <path d="M40 45 L40 55 M40 50 L45 50 M45 45 L45 55" stroke="#00f3ff" stroke-width="2" stroke-linecap="round" />
  <path d="M55 45 L55 55 M55 45 L60 55 M60 45 L60 55" stroke="#00f3ff" stroke-width="2" stroke-linecap="round" />
  
  <!-- Glow filter -->
  <defs>
    <filter id="glow" x="-50%" y="-50%" width="200%" height="200%">
      <feGaussianBlur stdDeviation="2" result="blur" />
      <feComposite in="SourceGraphic" in2="blur" operator="over" />
    </filter>
  </defs>
</svg> 