<?xml version="1.0" encoding="UTF-8"?>
<svg xmlns="http://www.w3.org/2000/svg" viewBox="0 0 1200 630" width="1200" height="630">
  <!-- Background -->
  <rect width="1200" height="630" fill="#0a0e17" />
  
  <!-- Grid pattern -->
  <g opacity="0.15">
    <!-- Horizontal lines -->
    <line x1="0" y1="0" x2="1200" y2="0" stroke="#8A8F98" stroke-width="1" />
    <line x1="0" y1="63" x2="1200" y2="63" stroke="#8A8F98" stroke-width="1" />
    <line x1="0" y1="126" x2="1200" y2="126" stroke="#8A8F98" stroke-width="1" />
    <line x1="0" y1="189" x2="1200" y2="189" stroke="#8A8F98" stroke-width="1" />
    <line x1="0" y1="252" x2="1200" y2="252" stroke="#8A8F98" stroke-width="1" />
    <line x1="0" y1="315" x2="1200" y2="315" stroke="#8A8F98" stroke-width="1" />
    <line x1="0" y1="378" x2="1200" y2="378" stroke="#8A8F98" stroke-width="1" />
    <line x1="0" y1="441" x2="1200" y2="441" stroke="#8A8F98" stroke-width="1" />
    <line x1="0" y1="504" x2="1200" y2="504" stroke="#8A8F98" stroke-width="1" />
    <line x1="0" y1="567" x2="1200" y2="567" stroke="#8A8F98" stroke-width="1" />
    <line x1="0" y1="630" x2="1200" y2="630" stroke="#8A8F98" stroke-width="1" />
    
    <!-- Vertical lines -->
    <line x1="0" y1="0" x2="0" y2="630" stroke="#8A8F98" stroke-width="1" />
    <line x1="120" y1="0" x2="120" y2="630" stroke="#8A8F98" stroke-width="1" />
    <line x1="240" y1="0" x2="240" y2="630" stroke="#8A8F98" stroke-width="1" />
    <line x1="360" y1="0" x2="360" y2="630" stroke="#8A8F98" stroke-width="1" />
    <line x1="480" y1="0" x2="480" y2="630" stroke="#8A8F98" stroke-width="1" />
    <line x1="600" y1="0" x2="600" y2="630" stroke="#8A8F98" stroke-width="1" />
    <line x1="720" y1="0" x2="720" y2="630" stroke="#8A8F98" stroke-width="1" />
    <line x1="840" y1="0" x2="840" y2="630" stroke="#8A8F98" stroke-width="1" />
    <line x1="960" y1="0" x2="960" y2="630" stroke="#8A8F98" stroke-width="1" />
    <line x1="1080" y1="0" x2="1080" y2="630" stroke="#8A8F98" stroke-width="1" />
    <line x1="1200" y1="0" x2="1200" y2="630" stroke="#8A8F98" stroke-width="1" />
  </g>
  
  <!-- Radial gradient overlay -->
  <radialGradient id="radial" cx="50%" cy="50%" r="70%" fx="50%" fy="50%">
    <stop offset="0%" stop-color="#0a0e17" stop-opacity="0" />
    <stop offset="100%" stop-color="#0a0e17" stop-opacity="1" />
  </radialGradient>
  <rect width="1200" height="630" fill="url(#radial)" />
  
  <!-- Logo element from favicon -->
  <g transform="translate(900, 315) scale(2)">
    <circle cx="0" cy="0" r="40" fill="none" stroke="#00f3ff" stroke-width="2" stroke-opacity="0.7" />
    <path d="M0 -30 L20 -10 L0 10 L-20 -10 Z" fill="none" stroke="#00f3ff" stroke-width="2" stroke-opacity="0.9" />
    <circle cx="0" cy="0" r="10" fill="#00f3ff" fill-opacity="0.8" />
    <line x1="-30" y1="0" x2="-15" y2="0" stroke="#00f3ff" stroke-width="2" />
    <line x1="15" y1="0" x2="30" y2="0" stroke="#00f3ff" stroke-width="2" />
    <line x1="0" y1="-30" x2="0" y2="-15" stroke="#00f3ff" stroke-width="2" />
    <line x1="0" y1="15" x2="0" y2="30" stroke="#00f3ff" stroke-width="2" />
  </g>
  
  <!-- Content -->
  <g>
    <!-- Name -->
    <text x="120" y="250" font-family="monospace" font-size="72" font-weight="700" fill="#FFFFFF">
      <tspan fill="#00f3ff">NICO</tspan> HERRERA
    </text>
    
    <!-- Title -->
    <text x="120" y="320" font-family="monospace" font-size="32" fill="#8A8F98">
      LEAD SOFTWARE ENGINEER // FULL-STACK DEVELOPER
    </text>
    
    <!-- Divider -->
    <rect x="120" y="350" width="64" height="4" fill="#00f3ff" />
    
    <!-- Description -->
    <text x="120" y="400" font-family="monospace" font-size="24" fill="#C4C8D0">
      Building innovative, high-performance web solutions
    </text>
  </g>
</svg> 